<svg xmlns="http://www.w3.org/2000/svg" version="1.1" xmlns:xlink="http://www.w3.org/1999/xlink" xmlns:svgjs="http://svgjs.com/svgjs" viewBox="0 0 640 400" data-background-color="#ffffff" preserveAspectRatio="xMidYMid meet" height="400" width="640"><rect width="640" height="400" x="0" y="0" opacity="1" fill="#ffffff" data-fill-palette-color="background" id="background"></rect><g id="tight-bounds" transform="matrix(1,0,0,1,122.24000000000001,76.4)"><svg viewBox="0 0 395.52 247.2" height="247.2" width="395.52"><g><svg xmlns="http://www.w3.org/2000/svg" version="1.1" xmlns:xlink="http://www.w3.org/1999/xlink" xmlns:svgjs="http://svgjs.com/svgjs"></svg></g><g><svg viewBox="0 0 395.52 247.2" height="247.2" width="395.52"><g transform="matrix(1,0,0,1,75.54432,63.00321720430108)"><svg viewBox="0 0 244.43135999999998 121.19356559139783" height="121.19356559139783" width="244.43135999999998"><g><svg viewBox="0 0 244.43135999999998 121.19356559139783" height="121.19356559139783" width="244.43135999999998"><g><svg viewBox="0 0 244.43135999999998 121.19356559139783" height="121.19356559139783" width="244.43135999999998"><g><svg viewBox="0 0 244.43135999999998 121.19356559139783" height="121.19356559139783" width="244.43135999999998"><g><svg viewBox="0 0 244.43135999999998 121.19356559139783" height="121.19356559139783" width="244.43135999999998"><g><svg viewBox="0 0 244.43135999999998 121.19356559139783" height="121.19356559139783" width="244.43135999999998"><g transform="matrix(1,0,0,1,0,0)"><svg width="244.43135999999998" viewBox="2.05 -40.95 83.69 41.50000000000001" height="121.19356559139783" data-palette-color="#202046"><path d="M13.25 0.55L13.25 0.55Q9.6 0.55 7.15-0.88 4.7-2.3 3.45-5.05 2.2-7.8 2.05-11.8L2.05-11.8 8.4-13.05Q8.5-10.7 8.97-8.9 9.45-7.1 10.43-6.13 11.4-5.15 13-5.15L13-5.15Q14.8-5.15 15.55-6.23 16.3-7.3 16.3-8.95L16.3-8.95Q16.3-11.6 15.1-13.3 13.9-15 11.9-16.7L11.9-16.7 6.8-21.2Q4.65-23.05 3.38-25.33 2.1-27.6 2.1-30.95L2.1-30.95Q2.1-35.75 4.9-38.35 7.7-40.95 12.55-40.95L12.55-40.95Q15.4-40.95 17.3-40.08 19.2-39.2 20.33-37.65 21.45-36.1 22-34.13 22.55-32.15 22.7-29.95L22.7-29.95 16.4-28.85Q16.3-30.75 15.98-32.25 15.65-33.75 14.83-34.6 14-35.45 12.4-35.45L12.4-35.45Q10.75-35.45 9.88-34.38 9-33.3 9-31.7L9-31.7Q9-29.65 9.85-28.33 10.7-27 12.3-25.6L12.3-25.6 17.35-21.15Q19.85-19.05 21.63-16.23 23.4-13.4 23.4-9.4L23.4-9.4Q23.4-6.5 22.13-4.25 20.85-2 18.57-0.73 16.3 0.55 13.25 0.55ZM33.85 0L27.05 0 27.05-28.9 33.85-28.9 33.85-24.45Q35.35-27 36.85-28.13 38.35-29.25 40.15-29.25L40.15-29.25Q40.45-29.25 40.67-29.23 40.9-29.2 41.2-29.15L41.2-29.15 41.2-22.1Q40.6-22.35 39.87-22.53 39.15-22.7 38.4-22.7L38.4-22.7Q37.05-22.7 35.95-22.05 34.85-21.4 33.85-19.9L33.85-19.9 33.85 0ZM50.05 0.45L50.05 0.45Q48.1 0.45 46.7-0.58 45.3-1.6 44.55-3.18 43.8-4.75 43.8-6.45L43.8-6.45Q43.8-9.15 44.8-11 45.8-12.85 47.45-14.1 49.1-15.35 51.2-16.28 53.3-17.2 55.45-17.95L55.45-17.95 55.45-20.45Q55.45-21.7 55.27-22.55 55.1-23.4 54.62-23.85 54.15-24.3 53.15-24.3L53.15-24.3Q52.3-24.3 51.77-23.9 51.25-23.5 51.02-22.78 50.8-22.05 50.75-21.1L50.75-21.1 50.65-19.35 44.2-19.6Q44.35-24.6 46.67-26.98 49-29.35 53.75-29.35L53.75-29.35Q58.1-29.35 60.07-26.95 62.05-24.55 62.05-20.45L62.05-20.45 62.05-7.1Q62.05-5.5 62.12-4.2 62.2-2.9 62.32-1.85 62.45-0.8 62.55 0L62.55 0 56.45 0Q56.3-1 56.07-2.27 55.85-3.55 55.75-4.15L55.75-4.15Q55.25-2.4 53.85-0.98 52.45 0.45 50.05 0.45ZM52.55-4.6L52.55-4.6Q53.2-4.6 53.77-4.93 54.35-5.25 54.8-5.7 55.25-6.15 55.45-6.5L55.45-6.5 55.45-14.55Q54.35-13.9 53.37-13.25 52.4-12.6 51.67-11.83 50.95-11.05 50.57-10.15 50.2-9.25 50.2-8.05L50.2-8.05Q50.2-6.45 50.82-5.53 51.45-4.6 52.55-4.6ZM73.84 0L67.04 0 67.04-28.9 73.84-28.9 73.84-26Q75.39-27.5 77.12-28.43 78.84-29.35 80.84-29.35L80.84-29.35Q82.64-29.35 83.69-28.48 84.74-27.6 85.24-26.15 85.74-24.7 85.74-23L85.74-23 85.74 0 78.94 0 78.94-21.65Q78.94-22.95 78.54-23.65 78.14-24.35 76.99-24.35L76.99-24.35Q76.29-24.35 75.47-23.95 74.64-23.55 73.84-22.95L73.84-22.95 73.84 0Z" opacity="1" transform="matrix(1,0,0,1,0,0)" fill="#202046" class="undefined-text-0" data-fill-palette-color="primary" id="text-0"></path></svg></g></svg></g></svg></g></svg></g></svg></g></svg></g></svg></g><g><path d="M151.089 212.808A122.216 122.216 0 1 0 151.089 34.392L162.018 34.392A111.286 111.286 0 1 1 162.018 212.808L151.089 212.808" fill="#202046" stroke="transparent" data-fill-palette-color="tertiary"></path></g></svg></g></svg><rect width="395.52" height="247.2" fill="transparent" stroke="transparent"></rect></g><defs></defs></svg>