<svg xmlns="http://www.w3.org/2000/svg" version="1.1" xmlns:xlink="http://www.w3.org/1999/xlink" xmlns:svgjs="http://svgjs.com/svgjs" viewBox="0 0 640 400" data-background-color="#051726" preserveAspectRatio="xMidYMid meet" height="400" width="640"><rect width="640" height="400" x="0" y="0" opacity="1" fill="#051726" data-fill-palette-color="background" id="background"></rect><g id="tight-bounds" transform="matrix(1,0,0,1,122.24000000000001,76.4)"><svg viewBox="0 0 395.52 247.2" height="247.2" width="395.52"><g><svg xmlns="http://www.w3.org/2000/svg" version="1.1" xmlns:xlink="http://www.w3.org/1999/xlink" xmlns:svgjs="http://svgjs.com/svgjs"></svg></g><g><svg viewBox="0 0 395.52 247.2" height="247.2" width="395.52"><g><path d="M187.306 247.21c-13.208 0-25.581-2.114-37.119-6.343-11.537-4.229-20.569-9.528-27.094-15.896l0.205-4.5h42.123c1.04 0.633 2.122 1.245 3.247 1.837 7.1 3.707 14.853 5.56 23.258 5.56 7.257 0 14.357-1.462 21.3-4.385 2.062-0.868 4.018-1.872 5.868-3.012h34.688c-6.876 7.278-15.174 13.163-24.894 17.655-13.051 6.056-26.912 9.084-41.582 9.084zM165.771 7.977c11.329-5.325 23.414-7.987 36.257-7.987 20.673 0 38.658 6.369 53.955 19.107-0.131 2.147-0.305 4.691-0.523 7.632l-33.683 0c-0.159-0.142-0.321-0.285-0.485-0.428-3.237-2.871-7.152-5.299-11.747-7.282-4.594-1.984-9.267-2.976-14.017-2.976-10.18 0-18.507 3.054-24.98 9.162-0.522 0.489-1.024 0.997-1.505 1.524l-27.407 0c6.482-7.962 14.527-14.212 24.135-18.752z" fill="#ffffff" data-fill-palette-color="tertiary"></path></g><g transform="matrix(1,0,0,1,0,48.6135835777126)"><svg viewBox="0 0 395.52 149.97283284457478" height="149.97283284457478" width="395.52"><g><svg viewBox="0 0 395.52 149.97283284457478" height="149.97283284457478" width="395.52"><g><svg viewBox="0 0 395.52 149.97283284457478" height="149.97283284457478" width="395.52"><g><svg viewBox="0 0 395.52 149.97283284457478" height="149.97283284457478" width="395.52"><g><svg viewBox="0 0 395.52 149.97283284457478" height="149.97283284457478" width="395.52"><g><svg viewBox="0 0 395.52 149.97283284457478" height="149.97283284457478" width="395.52"><g transform="matrix(1,0,0,1,0,0)"><svg width="395.52" viewBox="1.61 -30.98 83.25 31.57" height="149.97283284457478" data-palette-color="#ffffff"><path d="M9.81 0.59Q12.62 0.59 15.12-0.57 17.63-1.73 19.15-3.86 20.68-5.98 20.68-8.72L20.68-8.72Q20.68-10.67 19.68-12.11 18.68-13.55 17.24-14.54 15.8-15.53 13.35-16.82L13.35-16.82Q11.01-18.09 9.66-18.99 8.3-19.9 7.36-21.22 6.42-22.53 6.42-24.29L6.42-24.29Q6.42-26.59 7.67-27.76 8.91-28.93 10.86-28.93L10.86-28.93Q11.77-28.93 12.65-28.55 13.53-28.17 14.15-27.62 14.77-27.08 15.01-26.61L15.01-26.61 15.63-21.95 18.04-21.66Q18.12-22.71 18.31-25.05 18.51-27.39 18.58-28.54L18.58-28.54Q15.65-30.98 11.69-30.98L11.69-30.98Q9.23-30.98 7.06-29.96 4.88-28.93 3.54-26.98 2.2-25.02 2.2-22.36L2.2-22.36Q2.2-20.07 3.31-18.38 4.42-16.7 5.99-15.61 7.57-14.53 10.13-13.16L10.13-13.16Q12.21-12.04 13.39-11.25 14.58-10.47 15.38-9.41 16.19-8.35 16.19-7.01L16.19-7.01Q16.19-5.3 15.32-4.15 14.45-3 13.12-2.44 11.79-1.88 10.4-1.88L10.4-1.88Q8.79-1.88 7.43-2.59 6.08-3.3 5.37-4.32L5.37-4.32 4.42-8.91 1.93-9.25 1.61-2.25Q2.86-1.03 5.07-0.22 7.28 0.59 9.81 0.59L9.81 0.59ZM35.52 0L35.76-2.12 30.08-2.95 30.08-12.3Q30.32-14.04 31.04-15.23 31.76-16.43 32.64-17.03 33.52-17.63 34.25-17.63L34.25-17.63Q34.96-17.63 35.74-17.37 36.52-17.11 37.23-16.67L37.23-16.67Q38.62-17.85 38.62-19.38L38.62-19.38Q38.62-20.48 37.86-21.3 37.11-22.12 35.91-22.12L35.91-22.12Q34.81-22.12 33.69-21.37 32.57-20.63 31.56-19.14 30.56-17.65 29.93-15.53L29.93-15.53 29.47-15.53 29.95-21.14 29.39-21.73 22.39-20.83 22.04-18.97 26.02-17.77 26.02-2.78 22.29-1.81 22.04 0 35.52 0ZM44.94 0.59Q47.58 0.59 49.25-0.62 50.92-1.83 51.63-3.2L51.63-3.2 51.9-3.2 51.9-2.83Q51.9-2.03 52.28-1.28 52.66-0.54 53.51-0.05 54.37 0.44 55.68 0.44L55.68 0.44Q56.71 0.44 57.88 0.17L57.88 0.17Q58.64 0.02 59-0.02L59-0.02 59.32-2.12 58.1-2.34Q56.95-2.54 56.38-2.87 55.81-3.2 55.59-3.82 55.37-4.44 55.37-5.62L55.37-5.62 55.37-14.48Q55.37-18.38 53.96-20.18 52.56-21.97 49.34-21.97L49.34-21.97Q47.63-21.97 45.65-21.26 43.67-20.56 42.33-19.4 40.99-18.24 40.99-16.97L40.99-16.97Q40.99-15.38 41.96-14.92 42.94-14.45 44.38-14.45L44.38-14.45Q44.6-16.92 44.76-17.85 44.92-18.77 45.43-19.24 45.94-19.7 47.09-19.7L47.09-19.7Q49.41-19.7 50.41-17.86 51.41-16.02 51.41-13.18L51.41-13.18 51.41-11.84Q47.6-11.57 45.08-10.44 42.55-9.3 41.35-7.64 40.16-5.98 40.16-4.1L40.16-4.1Q40.16-2.66 40.8-1.6 41.45-0.54 42.55 0.02 43.65 0.59 44.94 0.59L44.94 0.59ZM51.41-10.45L51.41-4.59Q50.68-3.78 49.51-3.1 48.33-2.42 47.16-2.42L47.16-2.42Q46.31-2.42 45.69-2.86 45.06-3.3 44.75-3.96 44.43-4.61 44.43-5.25L44.43-5.25Q44.43-7.13 46.02-8.41 47.6-9.69 51.41-10.45L51.41-10.45ZM71.5 0L71.84-1.93 68.21-2.78 68.21-16.48Q69.11-17.48 70.38-18.03 71.65-18.58 73.01-18.58L73.01-18.58Q74.94-18.58 76.1-17.47 77.26-16.36 77.26-14.09L77.26-14.09 77.26-2.78 73.89-1.78 73.65 0 84.61 0 84.86-1.93 81.34-2.78 81.34-15.04Q81.34-18.33 79.83-20.14 78.31-21.95 75.46-21.95L75.46-21.95Q73.31-21.95 71.4-20.85 69.5-19.75 68.11-18.09L68.11-18.09 67.86-18.09 68.28-21.22 67.86-21.68 60.59-20.73 60.34-18.87 64.1-17.6 64.1-2.78 60.42-1.78 60.17 0 71.5 0Z" opacity="1" transform="matrix(1,0,0,1,0,0)" fill="#ffffff" class="undefined-text-0" data-fill-palette-color="primary" id="text-0"></path></svg></g></svg></g></svg></g></svg></g></svg></g></svg></g></svg></g></svg></g></svg><rect width="395.52" height="247.2" fill="transparent" stroke="transparent"></rect></g><defs></defs></svg>